HIERARCHY
ROOT reference
{
  OFFSET -65.3212 -1.93545 -120.338
  CHANNELS 6 Xposition Yposition Zposition Zrotation Xrotation Yrotation
  JOINT Hips
  {
    OFFSET 0 78.7191 0
    CHANNELS 3 Zrotation Xrotation Yrotation
    JOINT Chest
    {
      OFFSET 0 8.7983 -4.7612
      CHANNELS 3 Zrotation Xrotation Yrotation
      JOINT Chest2
      {
        OFFSET 0 8.0291 0.4195
        CHANNELS 3 Zrotation Xrotation Yrotation
        JOINT Chest3
        {
          OFFSET 0 9.9351 -2.2114
          CHANNELS 3 Zrotation Xrotation Yrotation
          JOINT Neck
          {
            OFFSET 0 22.3885 -0.4656
            CHANNELS 3 Zrotation Xrotation Yrotation
            JOINT Head
            {
              OFFSET -0.0001 12.643 3.4389
              CHANNELS 3 Zrotation Xrotation Yrotation
              End Site
              {
                OFFSET 0.0001 17.6655 0.5274
              }
            }
          }
          JOINT LeftCollar
          {
            OFFSET 2.2603 21.606 7.4023
            CHANNELS 3 Zrotation Xrotation Yrotation
            JOINT LeftShoulder
            {
              OFFSET 13.5163 -1.1332 -5.0146
              CHANNELS 3 Zrotation Xrotation Yrotation
              JOINT LeftElbow
              {
                OFFSET -0.0995 -28.05 -0.2431
                CHANNELS 3 Zrotation Xrotation Yrotation
                JOINT LeftWrist
                {
                  OFFSET 0.0679 -23.3996 -0.1402
                  CHANNELS 3 Zrotation Xrotation Yrotation
                  JOINT LeftFinger1
                  {
                    OFFSET 0.7932 -9.069 2.5189
                    CHANNELS 3 Zrotation Xrotation Yrotation
                    JOINT LeftFinger11
                    {
                      OFFSET -0.8272 -3.3923 0.5977
                      CHANNELS 3 Zrotation Xrotation Yrotation
                      JOINT LeftFinger12
                      {
                        OFFSET -0.5649 -2.3158 0.4082
                        CHANNELS 3 Zrotation Xrotation Yrotation
                        End Site
                        {
                          OFFSET -0.4919 -1.6479 0.2673
                        }
                      }
                    }
                  }
                  JOINT LeftFinger2
                  {
                    OFFSET 0.9159 -9.2044 0.2193
                    CHANNELS 3 Zrotation Xrotation Yrotation
                    JOINT LeftFinger21
                    {
                      OFFSET 0.0117 -4.1944 -0.0248
                      CHANNELS 3 Zrotation Xrotation Yrotation
                      JOINT LeftFinger22
                      {
                        OFFSET 0.0071 -2.3249 -0.0142
                        CHANNELS 3 Zrotation Xrotation Yrotation
                        End Site
                        {
                          OFFSET -0.1475 -2.0882 0.0028
                        }
                      }
                    }
                  }
                  JOINT LeftFinger3
                  {
                    OFFSET 0.6113 -8.7231 -2.0637
                    CHANNELS 3 Zrotation Xrotation Yrotation
                    JOINT LeftFinger31
                    {
                      OFFSET -0.1927 -3.8059 -0.2383
                      CHANNELS 3 Zrotation Xrotation Yrotation
                      JOINT LeftFinger32
                      {
                        OFFSET -0.1091 -2.1688 -0.1362
                        CHANNELS 3 Zrotation Xrotation Yrotation
                        End Site
                        {
                          OFFSET -0.2358 -1.9176 -0.0906
                        }
                      }
                    }
                  }
                  JOINT LeftFinger4
                  {
                    OFFSET -0.6151 -8.0947 -3.5641
                    CHANNELS 3 Zrotation Xrotation Yrotation
                    JOINT LeftFinger41
                    {
                      OFFSET -0.4882 -2.341 -0.6462
                      CHANNELS 3 Zrotation Xrotation Yrotation
                      JOINT LeftFinger42
                      {
                        OFFSET -0.3575 -1.7167 -0.4742
                        CHANNELS 3 Zrotation Xrotation Yrotation
                        End Site
                        {
                          OFFSET -0.4187 -1.5237 -0.3496
                        }
                      }
                    }
                  }
                  JOINT LeftFinger0
                  {
                    OFFSET -1.42 -1.8761 1.4223
                    CHANNELS 3 Zrotation Xrotation Yrotation
                    JOINT LeftFinger01
                    {
                      OFFSET -1.1471 -3.4929 2.6334
                      CHANNELS 3 Zrotation Xrotation Yrotation
                      JOINT LeftFinger02
                      {
                        OFFSET -0.823 -2.3 1.6571
                        CHANNELS 3 Zrotation Xrotation Yrotation
                        End Site
                        {
                          OFFSET -0.5822 -1.6914 1.1582
                        }
                      }
                    }
                  }
                }
              }
            }
          }
          JOINT RightCollar
          {
            OFFSET -2.2603 21.606 7.4023
            CHANNELS 3 Zrotation Xrotation Yrotation
            JOINT RightShoulder
            {
              OFFSET -13.5187 -1.1334 -5.0155
              CHANNELS 3 Zrotation Xrotation Yrotation
              JOINT RightElbow
              {
                OFFSET 0.0994 -28.0499 -0.2431
                CHANNELS 3 Zrotation Xrotation Yrotation
                JOINT RightWrist
                {
                  OFFSET -0.0679 -23.3996 -0.1402
                  CHANNELS 3 Zrotation Xrotation Yrotation
                  JOINT RightFinger1
                  {
                    OFFSET -0.7932 -9.0691 2.5189
                    CHANNELS 3 Zrotation Xrotation Yrotation
                    JOINT RightFinger11
                    {
                      OFFSET 0.8272 -3.3923 0.5977
                      CHANNELS 3 Zrotation Xrotation Yrotation
                      JOINT RightFinger12
                      {
                        OFFSET 0.565 -2.3158 0.4082
                        CHANNELS 3 Zrotation Xrotation Yrotation
                        End Site
                        {
                          OFFSET 0.4919 -1.6479 0.2673
                        }
                      }
                    }
                  }
                  JOINT RightFinger2
                  {
                    OFFSET -0.916 -9.2044 0.2193
                    CHANNELS 3 Zrotation Xrotation Yrotation
                    JOINT RightFinger21
                    {
                      OFFSET -0.0117 -4.1944 -0.0248
                      CHANNELS 3 Zrotation Xrotation Yrotation
                      JOINT RightFinger22
                      {
                        OFFSET -0.0071 -2.3249 -0.0142
                        CHANNELS 3 Zrotation Xrotation Yrotation
                        End Site
                        {
                          OFFSET 0.1475 -2.0882 0.0028
                        }
                      }
                    }
                  }
                  JOINT RightFinger3
                  {
                    OFFSET -0.6113 -8.7231 -2.0637
                    CHANNELS 3 Zrotation Xrotation Yrotation
                    JOINT RightFinger31
                    {
                      OFFSET 0.1927 -3.8059 -0.2383
                      CHANNELS 3 Zrotation Xrotation Yrotation
                      JOINT RightFinger32
                      {
                        OFFSET 0.1091 -2.1688 -0.1362
                        CHANNELS 3 Zrotation Xrotation Yrotation
                        End Site
                        {
                          OFFSET 0.2358 -1.9176 -0.0906
                        }
                      }
                    }
                  }
                  JOINT RightFinger4
                  {
                    OFFSET 0.6151 -8.0947 -3.564
                    CHANNELS 3 Zrotation Xrotation Yrotation
                    JOINT RightFinger41
                    {
                      OFFSET 0.4882 -2.341 -0.6462
                      CHANNELS 3 Zrotation Xrotation Yrotation
                      JOINT RightFinger42
                      {
                        OFFSET 0.3574 -1.7166 -0.4742
                        CHANNELS 3 Zrotation Xrotation Yrotation
                        End Site
                        {
                          OFFSET 0.4187 -1.5237 -0.3496
                        }
                      }
                    }
                  }
                  JOINT RightFinger0
                  {
                    OFFSET 1.4199 -1.8761 1.4221
                    CHANNELS 3 Zrotation Xrotation Yrotation
                    JOINT RightFinger01
                    {
                      OFFSET 1.1472 -3.4929 2.6336
                      CHANNELS 3 Zrotation Xrotation Yrotation
                      JOINT RightFinger02
                      {
                        OFFSET 0.8229 -2.3 1.6571
                        CHANNELS 3 Zrotation Xrotation Yrotation
                        End Site
                        {
                          OFFSET 0.5822 -1.6914 1.1582
                        }
                      }
                    }
                  }
                }
              }
            }
          }
        }
      }
    }
    JOINT RightHip
    {
      OFFSET -9.412 3.9771 -0.7758
      CHANNELS 3 Zrotation Xrotation Yrotation
      JOINT RightKnee
      {
        OFFSET -0.7531 -40.938 0
        CHANNELS 3 Zrotation Xrotation Yrotation
        JOINT RightAnkle
        {
          OFFSET 0 -40.1986 0
          CHANNELS 3 Zrotation Xrotation Yrotation
          JOINT RightToe
          {
            OFFSET 0 -4.4182 9.239
            CHANNELS 3 Zrotation Xrotation Yrotation
            End Site
            {
              OFFSET 0 0 6.1981
            }
          }
        }
      }
    }
    JOINT LeftHip
    {
      OFFSET 9.4119 3.9773 -0.7758
      CHANNELS 3 Zrotation Xrotation Yrotation
      JOINT LeftKnee
      {
        OFFSET 0.7532 -40.9383 0
        CHANNELS 3 Zrotation Xrotation Yrotation
        JOINT LeftAnkle
        {
          OFFSET 0 -40.1986 0
          CHANNELS 3 Zrotation Xrotation Yrotation
          JOINT LeftToe
          {
            OFFSET 0 -4.4182 9.239
            CHANNELS 3 Zrotation Xrotation Yrotation
            End Site
            {
              OFFSET 0 0 6.1981
            }
          }
        }
      }
    }
  }
}
MOTION
Frames:	8
Frame Time:	0.0333333
-24.9999 46.7125 -13.3896 0 0 -0 3.50301 -16.689 1.21343 1.22281 0.690548 -1.34463 2.46176 1.35203 -2.70398 2.46176 1.35203 -2.70398 -8.68576 18.3677 18.3323 -16.0345 3.14257 16.3503 23.9565 -0.951284 -21.7113 33.0573 -41.713 18.1642 138.204 -74.587 -176.496 -27.1622 -22.749 89.8732 4.52589 18.4701 -1.84851 -46.4156 25.3081 8.48144 -30.5729 18.0863 3.33225 -7.82517 13.0272 2.51932 -42.7841 24.7472 5.54518 -28.933 17.7322 1.72851 -11.2793 14.3628 8.95553 -29.7797 20.1696 1.41888 -31.0209 20.923 1.70388 -8.89319 15.2784 16.6537 -24.3568 16.7378 -0.473912 -23.2669 16.0169 -0.606831 -8.63085 -1.56165 -51.5333 -1.51531 -0.520786 0.260851 8.53288 10.6974 -3.07889 -18.2978 -0.0453777 10.8052 -11.7304 -45.5678 3.79656 99.791 -70.9036 49.1994 27.2006 -30.5474 -49.8141 -23.4442 8.24586 8.30959 38.2986 11.7585 -4.72782 43.8839 13.0706 -6.01507 0.0407733 10.5962 4.74458 50.301 15.1722 -5.89752 42.6882 13.3652 -4.18992 14.7392 7.03138 -4.90133 35.8192 13.3674 -2.26566 37.3558 13.8713 -2.5435 22.3141 3.54694 -7.58503 29.8166 11.2128 -0.407434 29.8091 11.2102 -0.4063 6.15725 0.690856 50.5084 -0.712401 1.62184 0.519293 -7.01873 14.2243 5.45748 -3.11334 -13.5002 7.60268 58.983 63.3794 -48.8154 9.65441 -23.5157 20.6581 0.480478 3.30431 -0.203385 -13.6635 -2.8783 -7.07096 0.354465 0.664637 1.09649 -11.8719 -1.39295 16.0342 -1.33405 9.87474 0.115218 
-24.8411 46.6789 -13.0795 0 0 -0 2.93371 -16.8538 -0.151947 1.2474 0.819435 -1.32651 2.5138 1.60956 -2.67095 2.5138 1.60956 -2.67095 -8.56272 17.1738 17.9687 -16.0555 2.93785 17.0773 24.3054 -0.953485 -21.7037 31.3189 -41.6851 17.192 143.662 -73.0104 -168.421 -26.8873 -19.2691 85.6395 4.38039 18.3862 -1.85324 -46.2116 25.2281 8.40353 -30.6839 18.1436 3.36127 -7.7047 12.8256 2.49427 -42.7841 24.7471 5.54521 -28.558 17.5231 1.64952 -11.1958 14.2243 8.8859 -29.4814 19.9869 1.35298 -30.7248 20.7445 1.63447 -8.47308 14.9697 16.4568 -24.2359 16.658 -0.489347 -23.0003 15.8396 -0.637166 -8.68783 -1.83988 -51.5051 -1.56918 -0.50548 0.265473 8.53287 10.6974 -3.07883 -18.2189 -0.0444675 10.8052 -11.4019 -45.1951 3.69714 104.034 -70.9228 51.3688 28.5642 -28.9257 -48.4173 -23.0594 8.12893 8.21664 38.0777 11.7039 -4.67949 43.5697 13.0005 -5.93943 0.122199 10.5317 4.69878 49.9151 15.0866 -5.8054 42.4223 13.2977 -4.13463 14.6774 6.9655 -4.82302 35.551 13.2784 -2.21838 37.1126 13.7921 -2.49847 22.1795 3.48029 -7.4715 29.6214 11.143 -0.385836 29.6114 11.1394 -0.384401 5.90537 0.672806 50.1549 -0.718482 1.63548 0.523787 -6.9729 14.1437 5.41981 -3.08077 -13.7484 7.46682 62.0683 64.1129 -51.9063 9.77114 -24.1637 21.0235 0.462283 3.18088 -0.195268 -13.6327 -2.77071 -7.31817 0.355472 0.686506 1.08706 -12.1143 -1.45721 15.8274 -1.27434 9.44097 0.105198 
-24.772 46.6861 -12.8167 0 0 -0 2.51288 -16.9858 -1.32718 1.26278 0.991542 -1.2575 2.54757 1.9549 -2.53709 2.54757 1.9549 -2.53709 -8.17261 15.6927 17.1905 -15.467 2.71244 17.4119 24.4371 -0.954155 -21.6981 29.972 -41.7229 16.2866 148.161 -71.2904 -161.319 -26.4618 -16.1132 81.6108 4.23501 18.3023 -1.85822 -46.0079 25.1479 8.326 -30.7948 18.2009 3.3904 -7.58437 12.6238 2.4697 -42.7841 24.7471 5.54524 -28.197 17.3209 1.57475 -11.1126 14.0858 8.81651 -29.188 19.8066 1.28912 -30.4335 20.5682 1.56713 -8.05464 14.6596 16.2625 -24.115 16.5783 -0.5046 -22.7339 15.6621 -0.66663 -8.74291 -2.1091 -51.4756 -1.62308 -0.490175 0.269968 8.53289 10.6974 -3.07896 -18.0305 -0.0420454 10.785 -11.1393 -44.8 3.50215 108.833 -70.7008 54.1148 29.586 -27.0272 -46.8148 -22.6559 8.01399 8.11715 37.8048 11.6361 -4.62006 43.2557 12.9299 -5.8642 0.203568 10.4672 4.65303 49.4979 14.9934 -5.70646 42.0992 13.2152 -4.06787 14.6157 6.89948 -4.74484 35.2522 13.1789 -2.16618 36.845 13.7047 -2.44931 22.0216 3.42115 -7.35537 29.4264 11.073 -0.364488 29.4139 11.0686 -0.362778 5.64308 0.65894 49.7402 -0.724564 1.64921 0.528224 -6.92717 14.0631 5.38224 -3.03996 -13.8236 7.51584 64.2157 64.5564 -54.0154 9.93096 -24.5969 21.1577 0.473605 3.25759 -0.20031 -13.5492 -2.68489 -7.33268 0.358557 0.544241 1.08184 -12.0104 -1.58352 15.6097 -1.22771 9.10147 0.097688 
-24.7531 46.8511 -12.5504 0 0 -0 2.23119 -17.0305 -2.16144 1.28306 1.15843 -1.18205 2.59053 2.28987 -2.39046 2.59053 2.28988 -2.39046 -7.58527 14.0765 16.1133 -14.1237 2.36152 17.0514 24.2322 -0.961665 -21.7933 28.1939 -41.751 15.01 152.017 -69.2336 -154.682 -26.1966 -12.6398 77.2583 4.10076 18.2225 -1.86229 -45.8044 25.0674 8.24885 -30.9059 18.2581 3.41967 -7.46427 12.4221 2.44558 -42.7841 24.7471 5.54524 -27.8367 17.1183 1.50139 -11.0295 13.9471 8.74739 -28.9046 19.6319 1.22829 -30.1485 20.3952 1.50212 -7.66126 14.3748 16.0816 -24.0015 16.5034 -0.518719 -22.476 15.49 -0.69435 -8.79788 -2.37832 -51.4464 -1.67444 -0.47562 0.274109 8.53289 10.6973 -3.07894 -17.6557 -0.0393315 10.8074 -11.0162 -44.084 3.12073 113.937 -69.9267 57.2521 30.2709 -24.9937 -45 -22.2526 7.8984 8.01853 37.5319 11.568 -4.561 42.8832 12.8457 -5.77544 0.284191 10.3853 4.59934 49.0498 14.8924 -5.60094 41.7764 13.1325 -4.00165 14.5354 6.82725 -4.66641 34.9536 13.0793 -2.11454 36.5401 13.6047 -2.39377 21.8639 3.36168 -7.23947 29.1942 10.9897 -0.339367 29.2164 10.9977 -0.341423 5.38082 0.649355 49.2956 -0.730656 1.66284 0.532714 -6.88144 13.9826 5.34469 -3.18674 -13.8839 7.00867 65.6064 64.825 -55.3557 9.9727 -24.7503 20.8984 0.551199 3.78299 -0.235209 -13.4077 -2.61624 -7.12016 0.36587 0.0684965 1.0703 -11.7633 -2.15283 14.9543 -1.22113 9.0534 0.0966443 
-24.7934 47.2108 -12.2364 0 0 -0 2.04785 -16.9627 -2.68442 1.29246 1.34906 -1.08697 2.61137 2.67303 -2.20501 2.61137 2.67301 -2.20501 -6.8007 11.4211 14.5876 -12.0604 1.8766 16.0807 23.7136 -0.980782 -22.0343 25.857 -41.9024 13.313 155.89 -66.5905 -147.706 -25.8172 -8.38812 72.3154 3.96661 18.1427 -1.86654 -45.6011 24.9867 8.17205 -31.017 18.3153 3.44905 -7.35607 12.242 2.42244 -42.7841 24.7471 5.54531 -27.4771 16.9153 1.42948 -10.9467 13.8084 8.67852 -28.6217 19.4568 1.16847 -29.8756 20.2289 1.44069 -7.26932 14.0888 15.903 -23.8881 16.4285 -0.532713 -22.2249 15.322 -0.720586 -8.8507 -2.63726 -51.4179 -1.72584 -0.461078 0.278147 8.53289 10.6974 -3.07895 -17.0602 -0.0375496 10.9175 -11.1945 -42.7737 2.35607 120.162 -68.2726 61.0464 30.6621 -22.5805 -42.4212 -21.8497 7.78208 7.92073 37.2179 11.4893 -4.4934 42.511 12.7609 -5.6873 0.36471 10.3033 4.54581 48.5712 14.7835 -5.48911 41.3936 13.0338 -3.92369 14.4551 6.75488 -4.5881 34.6255 12.9693 -2.05839 36.2353 13.5044 -2.33881 21.6834 3.31152 -7.1189 28.9622 10.9063 -0.314609 28.9596 10.9054 -0.313993 5.12177 0.644758 48.822 -0.736746 1.67652 0.537201 -6.81855 13.8713 5.29309 -3.45398 -13.3757 5.97465 64.6414 64.6472 -54.2505 9.81938 -24.3755 19.7212 0.706931 4.8295 -0.306946 -13.1751 -3.11981 -6.56476 0.38402 0.118536 1.00563 -11.3469 -3.99711 14.1457 -1.27155 9.42072 0.104738 
-24.8787 47.7312 -11.8071 0 0 -0 1.93525 -16.7851 -2.8324 1.29251 1.56331 -1.00585 2.61372 3.10324 -2.04786 2.61373 3.10325 -2.04787 -5.89294 7.72745 12.7303 -9.71324 0.989464 14.8098 23.074 -1.00948 -22.3819 23.3379 -41.9703 11.4794 159.994 -63.5077 -140.438 -24.9496 -4.01316 67.1371 3.83252 18.0629 -1.87102 -45.4227 24.9155 8.10486 -31.1212 18.3688 3.4767 -7.24804 12.0619 2.39966 -42.7841 24.7471 5.54536 -27.1376 16.7229 1.36275 -10.8736 13.6884 8.61748 -28.3568 19.2924 1.11326 -29.6033 20.0623 1.38017 -6.87876 13.8016 15.7266 -23.7748 16.3535 -0.54655 -21.9866 15.1623 -0.744786 -8.90146 -2.8867 -51.3904 -1.77503 -0.44719 0.281893 8.53289 10.6973 -3.07894 -16.2647 -0.0369518 11.1171 -11.5828 -40.9232 1.30678 126.391 -65.742 64.7255 30.7627 -20.0381 -39.4019 -21.449 7.65995 7.81854 36.8752 11.4029 -4.42012 42.0939 12.6651 -5.58915 0.445131 10.2212 4.49234 48.0625 14.6667 -5.37121 41.0111 12.9347 -3.84645 14.3586 6.67809 -4.51011 34.2783 12.8526 -1.9997 35.892 13.3911 -2.27754 21.5031 3.26095 -6.99854 28.7015 10.8124 -0.287227 28.703 10.8129 -0.286997 4.86926 0.645987 48.32 -0.742806 1.69025 0.54167 -6.75576 13.7599 5.24162 -3.69655 -12.5432 4.47796 61.7613 64.0306 -51.0088 10.699 -23.2017 17.1789 0.91468 6.20887 -0.406087 -12.4316 -3.96618 -6.29462 0.42023 -0.000173226 0.934855 -10.118 -6.12437 13.1692 -1.35285 10.0111 0.118462 
-25.0233 48.3625 -11.3413 0 0 -0 1.79257 -16.5468 -2.78341 1.29174 1.80503 -0.961058 2.61552 3.58765 -1.96404 2.61553 3.58765 -1.96405 -4.96706 3.78269 10.985 -7.1476 -0.191023 13.6823 22.564 -1.0418 -22.7572 21.8468 -41.6309 10.3184 164.236 -60.3399 -133.319 -23.3595 -0.81312 62.3633 3.70242 17.986 -1.87475 -45.2445 24.8442 8.03795 -31.2254 18.4223 3.50447 -7.14013 11.8818 2.37726 -42.7842 24.7471 5.54545 -26.8221 16.5435 1.30175 -10.8006 13.5683 8.55662 -28.0923 19.1277 1.0589 -29.3508 19.9075 1.32479 -6.52523 13.5448 15.5684 -23.6725 16.2858 -0.558885 -21.7486 15.0026 -0.768277 -8.95024 -3.12658 -51.3638 -1.82191 -0.434078 0.285351 8.53288 10.6974 -3.07893 -15.3326 -0.0367191 11.3627 -11.948 -38.9317 0.255814 131.305 -62.838 67.6918 30.7487 -17.8326 -36.6939 -21.0486 7.53714 7.71722 36.503 11.3085 -4.34106 41.6466 12.5616 -5.48464 0.545625 10.13 4.43122 47.5145 14.5396 -5.24534 40.5823 12.8228 -3.76061 14.2622 6.60116 -4.43223 33.9126 12.7292 -1.93861 35.5092 13.2642 -2.21003 21.3007 3.22144 -6.87167 28.4214 10.7113 -0.258243 28.4465 10.7203 -0.260465 4.62643 0.653719 47.7902 -0.748915 1.70389 0.546175 -6.6931 13.6486 5.19029 -3.76293 -12.1044 3.61301 59.3421 63.446 -48.2395 11.9152 -22.26 15.7239 1.12545 7.58785 -0.510555 -10.9176 -5.12295 -6.26244 0.458266 -0.0524724 0.980338 -7.26243 -7.64957 10.7394 -1.4417 10.6537 0.134404 
-25.2006 49.1079 -10.9886 0 0 -0 1.62145 -16.3661 -2.39069 1.30212 2.09203 -0.947665 2.64133 4.16164 -1.94461 2.64134 4.16165 -1.94462 -4.04892 0.0428269 9.46131 -4.89203 -1.39668 12.5292 22.3285 -1.07313 -23.105 21.0864 -41.3133 9.64554 167.712 -57.3686 -127.514 -21.6789 1.27346 58.3216 3.57236 17.9091 -1.87866 -45.0665 24.7727 7.97137 -31.3298 18.4757 3.53234 -7.0324 11.7016 2.3552 -42.7841 24.7472 5.54531 -26.5071 16.3638 1.24186 -10.7278 13.4481 8.49598 -27.8459 18.9738 1.00894 -29.0989 19.7525 1.27023 -6.17283 13.287 15.412 -23.5702 16.2181 -0.571119 -21.5267 14.8534 -0.78957 -8.99768 -3.36021 -51.3376 -1.86882 -0.420869 0.288715 8.5329 10.6973 -3.0789 -14.338 -0.0350521 11.5844 -12.3166 -37.0249 -0.752999 134.958 -59.954 70.0683 30.6669 -16.0021 -34.3627 -20.6485 7.41357 7.6168 36.0926 11.2038 -4.25462 41.1606 12.4481 -5.37198 0.646035 10.0386 4.37027 46.9671 14.4114 -5.12082 40.112 12.6992 -3.66745 14.1495 6.52019 -4.35293 33.5227 12.597 -1.87432 35.1268 13.1368 -2.1434 21.0984 3.18151 -6.74495 28.1132 10.5998 -0.226927 28.1394 10.6093 -0.229205 4.39632 0.668936 47.2237 -0.755025 1.71758 0.550645 -6.61692 13.5128 5.12795 -3.71397 -11.2771 3.5301 56.2817 62.6037 -44.9123 12.1958 -21.5434 16.0589 1.28954 8.6468 -0.594528 -8.94608 -6.28183 -6.44136 0.473353 0.0986817 1.11229 -4.4951 -8.23095 8.08532 -1.57078 11.5827 0.159288 
